<svg viewBox="0 0 512 512" xmlns="http://www.w3.org/2000/svg">
    <linearGradient id="a" gradientUnits="userSpaceOnUse" x1="256" x2="256" y1="496" y2="16">
        <stop offset="0" stop-color="#12c2e9"/>
        <stop offset=".5" stop-color="#c471ed"/>
        <stop offset="1" stop-color="#f64f59"/>
    </linearGradient>
    <path d="M232 256a24 24 0 1024-24 24.027 24.027 0 00-24 24zm32 0a8 8 0 11-8-8 8.009 8.009 0 018 8zm-112 0a104 104 0 10104-104 104.118 104.118 0 00-104 104zm192 0a88 88 0 11-88-88 88.1 88.1 0 0188 88zm-160 0a72 72 0 1072-72 72.081 72.081 0 00-72 72zm128 0a56 56 0 11-56-56 56.064 56.064 0 0156 56zm152 0c0 114.691-93.309 208-208 208a8 8 0 010-16c105.869 0 192-86.131 192-192S361.869 64 256 64a8 8 0 010-16c114.691 0 208 93.309 208 208zm-42.893 32.228a8 8 0 015.875 9.669 175.243 175.243 0 01-11.925 33.535 8 8 0 11-14.453-6.864 159.174 159.174 0 0010.834-30.468 8 8 0 019.669-5.872zM96 256a8 8 0 01-16 0c0-97.047 78.953-176 176-176s176 78.953 176 176a8 8 0 01-16 0c0-88.224-71.776-160-160-160S96 167.776 96 256zm160 176a174.669 174.669 0 01-125.714-52.832 8 8 0 1111.428-11.2 159.987 159.987 0 00228.572 0 8 8 0 1111.428 11.2A174.669 174.669 0 01256 432zm0-416C123.452 16 16 123.452 16 256s107.452 240 240 240 240-107.452 240-240S388.548 16 256 16zm0 464C132.288 480 32 379.712 32 256S132.288 32 256 32s224 100.288 224 224-100.288 224-224 224z" fill="url(#a)"/>
</svg>
